<?xml version="1.0" encoding="iso-8859-1"?>
<!-- Uploaded to: SVG Repo, www.svgrepo.com, Generator: SVG Repo Mixer Tools -->
<svg height="800px" width="800px" version="1.1" id="Layer_1" xmlns="http://www.w3.org/2000/svg" xmlns:xlink="http://www.w3.org/1999/xlink" 
	 viewBox="0 0 511.999 511.999" xml:space="preserve">
<path style="fill:#FFD3AE;" d="M215.792,199.919c0,0-23.231,80.161-91.573,96.223h-0.011v74.127c0,2.155,0.057,4.299,0.147,6.432
	c0.624,13.045,3.119,25.59,7.237,37.375c9.426,27.133,27.393,50.261,50.658,66.198c0.295,0.204,0.59,0.397,0.873,0.601
	c21.234,14.281,46.79,22.618,74.308,22.618s53.086-8.337,74.308-22.618c0.284-0.204,0.59-0.397,0.873-0.601
	c18.829-12.897,34.177-30.502,44.351-51.123c2.121-4.288,4.015-8.711,5.66-13.249c0.125-0.306,0.227-0.613,0.34-0.919
	c4.299-12.046,6.897-24.909,7.543-38.283c0.091-2.133,0.147-4.276,0.147-6.432v-74.127
	C254.188,322.605,215.792,199.919,215.792,199.919z"/>
<path style="fill:#DBA983;" d="M242.961,484.314c-0.284-0.193-0.59-0.397-0.873-0.601c-33.383-22.868-55.842-60.549-57.895-103.574
	c-0.091-2.133-0.147-4.276-0.147-6.432v-33.87v-40.257V283.19v-20.883c0-37.081,15.154-70.622,39.599-94.771
	c17.643-17.435,40.134-29.968,65.268-35.419c-9.139-1.982-18.624-3.034-28.358-3.034c-36.502,0-69.567,14.678-93.626,38.453
	c-24.444,24.149-39.599,57.691-39.599,94.771v20.883v16.391v40.257v33.87c0,2.155,0.057,4.299,0.147,6.432
	c2.053,43.024,24.512,80.706,57.895,103.574c0.284,0.204,0.59,0.408,0.873,0.601c21.223,14.281,46.79,22.629,74.308,22.629
	c9.735,0,19.217-1.064,28.357-3.047C272.212,500.275,256.676,493.543,242.961,484.314z"/>
<path style="fill:#F95428;" d="M216.337,99.033c-19.34,19.941-39.394,39.179-60.141,57.657
	c-14.905,13.294-30.173,26.191-45.769,38.691l-1.078-1.338c-19.34-36.82-46.439-66.584-81.284-89.293
	c12.829-16.924,26.792-32.577,41.901-46.972c19.385-18.501,40.665-34.925,63.816-49.274c19.351,36.82,46.439,66.584,81.284,89.293
	L216.337,99.033z"/>
<path style="fill:#E54728;" d="M156.196,156.69c-14.905,13.294-30.173,26.191-45.769,38.691l-1.078-1.338
	c-19.34-36.82-46.439-66.584-81.284-89.293c12.829-16.924,26.792-32.577,41.901-46.972C97.79,83.414,149.549,133.437,156.196,156.69
	z"/>
<path style="fill:#666666;" d="M493.119,337.726c0,0-3.403,95.282-110.141,77.258h-0.011c4.299-12.046,6.897-24.909,7.543-38.283
	h0.011c17.446-5.093,30.195-21.212,30.195-40.302c0-19.034-12.67-35.118-30.048-40.257h-0.011
	c-136.468,26.463-174.865-96.223-174.865-96.223s-23.231,80.161-91.573,96.223h-0.011c-4.843,1.441-9.335,3.732-13.283,6.704
	c-10.175,7.657-16.754,19.839-16.754,33.553c0,19.09,12.75,35.198,30.184,40.302c0.624,13.045,3.119,25.59,7.237,37.375
	l-2.575,0.907C22.279,433.007,18.876,337.726,18.876,337.726c-6.806-74.853,76.554-85.062,76.554-85.062
	c-0.59-6.647-2.042-26.906-2.983-43.172c6.046-4.639,12.035-9.347,17.979-14.111c32.623-26.146,63.793-54.05,93.342-83.587
	c4.231-4.22,8.417-8.473,12.568-12.761c5.365-5.524,10.674-11.094,15.914-16.731l0.238,0.216c0,0,75.182-27.212,129.629,5.104
	c54.435,32.328,59.551,107.612,54.435,165.042C416.553,252.664,499.925,262.873,493.119,337.726z"/>
<g>
	<path style="fill:#4D4D4D;" d="M493.119,337.726c0,0-3.403,95.282-110.141,77.258h-0.011c4.299-12.046,6.897-24.909,7.543-38.283
		h0.011c17.446-5.093,30.195-21.212,30.195-40.302C420.716,336.398,452.329,290.969,493.119,337.726z"/>
	<path style="fill:#4D4D4D;" d="M131.592,414.076l-2.575,0.907C22.279,433.007,18.876,337.725,18.876,337.725
		c-6.806-74.853,76.554-85.062,76.554-85.062s-26.951,36.389,15.381,50.148c0.034,0.011,0.079,0.023,0.113,0.034
		c-10.175,7.657-16.754,19.839-16.754,33.553c0,19.09,12.75,35.198,30.184,40.302C124.979,389.745,127.475,402.29,131.592,414.076z"
		/>
	<path style="fill:#4D4D4D;" d="M167.527,205.261c0,0-60.254,22.21-72.097,47.403c-0.59-6.647-2.042-26.906-2.983-43.172
		c6.046-4.639,12.035-9.347,17.979-14.111c32.623-26.146,63.793-54.05,93.342-83.587
		C203.768,111.794,153.916,173.501,167.527,205.261z"/>
	<path style="fill:#4D4D4D;" d="M390.668,296.142c17.378,5.138,30.048,21.223,30.048,40.257c0,19.09-12.75,35.209-30.195,40.302
		h-0.011c0.091-2.132,0.147-4.276,0.147-6.432v-33.87v-40.257H390.668z"/>
	<path style="fill:#4D4D4D;" d="M124.208,370.269c0,2.155,0.057,4.299,0.147,6.432c-17.434-5.104-30.184-21.212-30.184-40.302
		c0-19.034,12.67-35.107,30.036-40.257v40.257V370.269z"/>
</g>
<path style="fill:#DBA983;" d="M390.657,296.142v46.926c-3.743-2.677-7.94-4.753-12.466-6.091h-0.011
	c-5.751,1.112-11.332,1.962-16.742,2.564c-21.631,2.427-40.54,0.941-57.022-3.165c-77.178-19.192-101.101-95.622-101.101-95.622
	s-20.372,70.304-79.107,92.423v-37.035h0.011c68.342-16.062,91.573-96.223,91.573-96.223S254.188,322.605,390.657,296.142z"/>
<g>
	<polygon style="fill:#F7B239;" points="370.16,340.811 346.101,364.257 351.784,397.367 322.054,381.737 292.312,397.367 
		297.995,364.257 273.937,340.811 307.183,335.979 322.054,305.863 336.913,335.979 	"/>
	<polygon style="fill:#F7B239;" points="241.098,340.811 217.04,364.257 222.723,397.367 192.992,381.737 163.251,397.367 
		168.934,364.257 144.875,340.811 178.122,335.979 192.992,305.863 207.852,335.979 	"/>
</g>
<path style="fill:#DBA983;" d="M378.043,417.535c1.565-0.454,3.097-0.998,4.583-1.633c-1.645,4.537-3.539,8.961-5.66,13.249
	c0.522-3.823,0.885-7.691,1.066-11.615H378.043z"/>
<g>
	<path style="fill:#333333;" d="M461.744,259.813c-13.679-8.149-27.628-12.219-36.098-14.118
		c4.133-58.806-3.572-132.361-59.19-165.384c-36.547-21.699-80.896-18.528-109.03-13.094c2.4-2.706,4.808-5.405,7.184-8.133
		c3.085-3.545,2.712-8.918-0.831-12.002c-3.545-3.084-8.917-2.713-12.002,0.833c-11.808,13.567-23.959,26.839-36.401,39.831
		c-31.393-21.442-56.304-49.396-74.058-83.195c-1.098-2.091-3.016-3.63-5.294-4.251c-2.28-0.622-4.712-0.268-6.718,0.977
		C87.403,27.244,51.058,60.33,21.281,99.614c-1.426,1.882-2.007,4.272-1.602,6.598c0.405,2.326,1.758,4.38,3.736,5.669
		c31.97,20.83,57.459,48.233,75.864,81.473c-13.883,10.98-28.008,21.652-42.387,31.968c-3.818,2.739-4.691,8.055-1.953,11.872
		c1.662,2.316,4.272,3.548,6.919,3.548c1.717,0,3.451-0.518,4.952-1.596c6.093-4.372,12.127-8.826,18.134-13.317
		c0.49,7.421,0.991,14.493,1.397,19.87c-8.469,1.899-22.416,5.969-36.093,14.116c-20.305,12.097-43.684,35.528-39.861,78.475
		c0.187,3.942,2.814,43.422,33.207,68.198c15.74,12.83,35.826,19.276,59.934,19.276c7.23,0,14.825-0.585,22.77-1.747
		c10.354,25.256,27.928,47.369,51.111,63.249c0,0,0.894,0.616,0.969,0.666c23.41,15.744,50.748,24.067,79.057,24.067
		c28.321,0,55.659-8.322,79.058-24.068c0.069-0.047,0.816-0.557,1-0.689c23.053-15.811,40.554-37.766,50.921-62.841
		c6.96,0.91,13.642,1.366,20.043,1.365c24.11-0.001,44.205-6.45,59.945-19.28c30.391-24.774,33.019-64.253,33.206-68.193
		C505.433,295.344,482.051,271.911,461.744,259.813z M40.347,102.8c25.584-32.177,55.913-59.786,90.345-82.245
		c18.203,31.829,42.593,58.529,72.647,79.566c-28.696,29.07-58.956,56.598-90.604,82.42C94.608,150.667,70.319,123.896,40.347,102.8
		z M102.673,336.397c0-10.513,5.033-20.225,13.031-26.451v52.905C107.704,356.628,102.673,346.92,102.673,336.397z M327.811,473.254
		c-0.049,0.034-0.732,0.499-0.902,0.62c-20.562,13.811-44.582,21.111-69.472,21.111c-24.876,0-48.894-7.298-69.466-21.107
		c-0.201-0.142-0.909-0.624-0.909-0.624c-34.028-23.31-54.342-61.81-54.342-102.986v-67.623
		c46.649-14.025,72.019-55.233,83.504-80.312c6.031,11.719,15.593,27.044,29.734,41.56c15.083,15.482,37.187,31.669,67.793,39.558
		l-12.218,24.755l-28.817,4.187c-3.204,0.466-5.867,2.71-6.867,5.79c-1,3.08-0.166,6.461,2.153,8.721l20.852,20.326l-4.922,28.7
		c-0.547,3.192,0.764,6.417,3.385,8.32c1.483,1.076,3.237,1.624,5.001,1.624c1.353,0,2.713-0.323,3.958-0.978l25.775-13.55
		l25.775,13.55c2.869,1.508,6.341,1.256,8.959-0.648c2.62-1.903,3.932-5.129,3.385-8.32l-4.923-28.7l20.852-20.326
		c2.319-2.261,3.153-5.641,2.153-8.721c-1-3.08-3.663-5.324-6.867-5.789l-28.817-4.187l-10.481-21.238
		c6.865,0.896,14.079,1.394,21.678,1.394c8.938,0,18.397-0.673,28.391-2.139v64.045
		C382.153,411.445,361.837,449.945,327.811,473.254z M337.72,365.698l2.765,16.118l-14.476-7.61c-2.48-1.303-5.439-1.303-7.917,0
		l-14.476,7.61l2.764-16.12c0.473-2.76-0.441-5.576-2.447-7.53l-11.711-11.416l16.185-2.351c2.771-0.403,5.166-2.143,6.405-4.654
		l7.238-14.665l7.238,14.665c1.24,2.51,3.634,4.251,6.405,4.654l16.184,2.351l-11.713,11.417
		C338.161,360.122,337.246,362.938,337.72,365.698z M399.167,309.94c8.004,6.226,13.04,15.942,13.04,26.458
		c0,10.527-5.034,20.237-13.04,26.461V309.94z M484.647,336.959c-0.012,0.142-0.023,0.304-0.028,0.446
		c-0.015,0.352-1.722,35.422-27.082,55.992c-15.47,12.548-36.801,17.404-63.469,14.526c2.25-8.162,3.781-16.562,4.54-25.111
		c18.29-7.858,30.616-26.157,30.616-46.415c0-22.139-14.763-41.983-35.926-48.343c-0.047-0.015-2.861-0.532-4.249-0.262
		c-53.351,10.348-97.24-1.531-130.445-35.305c-25.143-25.573-34.6-54.83-34.688-55.109c-1.112-3.553-4.403-5.962-8.119-5.962
		c-0.027,0-0.054,0-0.081,0c-3.75,0.035-7.035,2.526-8.086,6.124c-0.056,0.192-5.774,19.451-19.381,40.223
		c-17.127,26.145-38.365,42.747-63.159,49.39c-0.935,0.251-4.997,1.363-5.837,1.662c-19.907,7.075-33.59,26.266-33.59,47.582
		c0,20.253,12.323,38.549,30.607,46.41c0.749,8.438,2.25,16.728,4.452,24.789c-27.974,3.535-50.25-1.219-66.254-14.2
		c-25.361-20.57-27.068-55.643-27.082-55.975c-0.006-0.155-0.016-0.312-0.029-0.467c-5.966-65.623,66.062-75.462,69.117-75.847
		c4.554-0.558,7.846-4.626,7.44-9.196c-0.514-5.786-1.753-22.836-2.701-38.468C149.486,176,194.793,134.715,236.551,90.12
		c9.408-3.12,74.337-23.017,121.222,4.821c50.469,29.966,55.218,101.897,50.313,156.963c-0.407,4.571,2.885,8.641,7.44,9.199
		c0.191,0.024,19.273,2.46,37.513,13.326C476.511,288.416,487.147,309.453,484.647,336.959z"/>
	<path style="fill:#333333;" d="M231.106,395.93l-4.922-28.7l20.852-20.326c2.319-2.261,3.153-5.641,2.153-8.721
		c-1-3.08-3.663-5.324-6.867-5.789l-28.817-4.187l-12.887-26.113c-1.434-2.904-4.391-4.743-7.629-4.743
		c-3.238,0-6.196,1.839-7.629,4.743l-12.887,26.113l-28.817,4.187c-3.204,0.466-5.867,2.71-6.867,5.789
		c-1,3.08-0.166,6.461,2.153,8.721l20.852,20.326l-4.923,28.7c-0.547,3.192,0.765,6.417,3.385,8.32
		c2.619,1.903,6.092,2.155,8.959,0.648l25.775-13.55l25.775,13.55c1.245,0.654,2.603,0.978,3.958,0.978
		c1.764,0,3.52-0.548,5.001-1.624C230.341,402.347,231.653,399.122,231.106,395.93z M211.105,358.168
		c-2.005,1.954-2.921,4.771-2.447,7.53l2.764,16.12l-14.476-7.61c-1.24-0.651-2.6-0.978-3.959-0.978s-2.719,0.326-3.959,0.978
		l-14.476,7.61l2.765-16.118c0.473-2.76-0.441-5.576-2.447-7.53l-11.711-11.416l16.184-2.351c2.771-0.403,5.166-2.143,6.405-4.654
		l7.238-14.665l7.238,14.665c1.24,2.51,3.634,4.251,6.405,4.654l16.185,2.351L211.105,358.168z"/>
	<path style="fill:#333333;" d="M275.482,426.037c-4.825,4.825-11.234,7.483-18.046,7.483c-6.812,0-13.22-2.658-18.046-7.483
		c-3.322-3.322-8.709-3.322-12.03,0c-3.322,3.322-3.322,8.709,0,12.032c8.039,8.039,18.721,12.466,30.077,12.466
		s22.037-4.427,30.076-12.466c3.322-3.322,3.322-8.709,0-12.032C284.191,422.715,278.804,422.715,275.482,426.037z"/>
	<circle style="fill:#333333;" cx="192.99" cy="356.444" r="8.507"/>
	<circle style="fill:#333333;" cx="322.052" cy="356.444" r="8.507"/>
</g>
</svg>